<svg xmlns="http://www.w3.org/2000/svg" viewBox="0 0 256 256">
  <defs>
    <linearGradient id="bg" x1="0" y1="0" x2="0" y2="1">
      <stop offset="0%" stop-color="#1a1545"/>
      <stop offset="100%" stop-color="#0f0c29"/>
    </linearGradient>
    <linearGradient id="accent" x1="0" y1="0" x2="1" y2="1">
      <stop offset="0%" stop-color="#e94560"/>
      <stop offset="100%" stop-color="#c23049"/>
    </linearGradient>
  </defs>
  <!-- File body -->
  <path d="M48 16 h112 l48 48 v176 a16 16 0 0 1-16 16 H48 a16 16 0 0 1-16-16 V32 a16 16 0 0 1 16-16z" fill="url(#bg)" stroke="#533483" stroke-width="3"/>
  <!-- Fold corner -->
  <path d="M160 16 v32 a16 16 0 0 0 16 16 h32" fill="none" stroke="#533483" stroke-width="3"/>
  <path d="M160 16 l48 48 h-32 a16 16 0 0 1-16-16 z" fill="#1a1545" opacity="0.6"/>
  <!-- Slide preview rectangles -->
  <rect x="56" y="80" width="72" height="44" rx="4" fill="#533483" opacity="0.6"/>
  <rect x="64" y="88" width="56" height="28" rx="2" fill="#1a1545"/>
  <rect x="136" y="80" width="72" height="44" rx="4" fill="url(#accent)" opacity="0.4"/>
  <rect x="144" y="88" width="56" height="28" rx="2" fill="#1a1545"/>
  <!-- Play triangle -->
  <polygon points="116,152 148,170 116,188" fill="url(#accent)"/>
  <!-- Label -->
  <text x="128" y="228" text-anchor="middle" font-family="system-ui,sans-serif" font-weight="700" font-size="28" fill="#e94560">.adsl</text>
</svg>
